<svg xmlns="http://www.w3.org/2000/svg" viewBox="0 0 248.38 63"><g id="Layer_2" data-name="Layer 2"><g id="Layer_3" data-name="Layer 3"><path d="M57,47.19l-8.55-2.94,5.37-3.53V11.85l-8.55,5.61V8.91L34.54,16v.67l-3.16-1.09,8.55-5.61L11.06,0,0,7.25,8.55,10.2,0,15.81l8.55,2.94L3.18,22.28V51.15l8.55-5.61v8.55L22.5,47v-.67l3.16,1.09-8.55,5.61L46,63,57,55.75l-8.55-3Zm-20-29.85,5.71,19.07-5.71,3.74Zm6,21.89v3.16L39.93,41.3ZM5.71,6.54l28.51,4.11-5.7,3.74Zm0,39.92V23.65l5.7-3.74Zm8.55,2.94V26.59L20,22.85ZM14,23.77V20.61l3.16,1.09ZM5.71,15.09l28.51,4.12L28.52,23ZM22.5,23.55l6.37,2.2L34.54,22V39.45l-6.37-2.2L22.5,41Zm.32,28.8,5.7-3.74L45.63,60.2Zm0-8.56,5.7-3.74,17.11,11.6Zm22.81-.7V20.28l5.7,19.07Z"/><path d="M81.08,42.12A10,10,0,0,1,88.16,25a9.82,9.82,0,0,1,7,2.9,10,10,0,0,1,3,7v7.71a2.22,2.22,0,0,1-.6,1.51,2.1,2.1,0,0,1-1.54.63,2,2,0,0,1-2-1.91,9,9,0,0,1-5.82,2.16A10,10,0,0,1,81.08,42.12Zm11.22-3a5.86,5.86,0,0,0,0-8.21,5.81,5.81,0,0,0-4.14-1.68,5.81,5.81,0,0,0,0,11.61A5.85,5.85,0,0,0,92.3,39.14Z"/><path d="M115.9,42.8V34.73a6.46,6.46,0,0,0-1.2-4,4,4,0,0,0-3.29-1.51,4.53,4.53,0,0,0-3.51,1.55,6,6,0,0,0-1.39,3.89v8.1a2,2,0,0,1-2.07,2.08,2.12,2.12,0,0,1-2.1-2.08V27.11a2,2,0,0,1,.63-1.49,2.14,2.14,0,0,1,1.49-.61,1.93,1.93,0,0,1,1.47.61,2.08,2.08,0,0,1,.58,1.49v.3A7.76,7.76,0,0,1,111.87,25a7.47,7.47,0,0,1,5.92,2.75,10.8,10.8,0,0,1,2.27,6.95V42.8a2.08,2.08,0,0,1-4.16,0Z"/><path d="M125.83,42.12a10,10,0,0,1,0-14.17,10.07,10.07,0,0,1,14.16,0,10,10,0,0,1,3,7,2,2,0,0,1-2.06,2H127.51a5.79,5.79,0,0,0,2,2.94A5.49,5.49,0,0,0,132.93,41a4.81,4.81,0,0,0,3.76-1.49,2.13,2.13,0,0,1,1.39-.52,2.09,2.09,0,0,1,.69.12,2.06,2.06,0,0,1,1,.88,2.17,2.17,0,0,1,.35,1.18,2,2,0,0,1-.8,1.57,7.94,7.94,0,0,1-2.47,1.6,10.74,10.74,0,0,1-3.93.67A10.06,10.06,0,0,1,125.83,42.12Zm12.85-8.67a5.7,5.7,0,0,0-2-3.17A5.91,5.91,0,0,0,133,29a5.63,5.63,0,0,0-5.6,4.43Z"/><path d="M147.78,42.17a9.75,9.75,0,0,1-3-7v0s0,0,0,0v0s0,0,0,0A10.11,10.11,0,0,1,154.92,25a9.42,9.42,0,0,1,6.82,2.69,2.46,2.46,0,0,1,.78,1.66,2,2,0,0,1-.67,1.53,2.18,2.18,0,0,1-1.41.61,3.28,3.28,0,0,1-1.91-.9,5.86,5.86,0,0,0-3.86-1.35,5.51,5.51,0,0,0-4,1.83A5.87,5.87,0,0,0,149.08,35l0,0,0,0a5.82,5.82,0,0,0,1.55,3.9,5.33,5.33,0,0,0,3.91,1.83,5.43,5.43,0,0,0,4-1.34,3.19,3.19,0,0,1,1.87-.88,2.27,2.27,0,0,1,1.45.6,2,2,0,0,1,.67,1.52,2.44,2.44,0,0,1-.78,1.65A9.38,9.38,0,0,1,154.92,45,10.13,10.13,0,0,1,147.78,42.17Z"/><path d="M179.09,42.8v-8a6.71,6.71,0,0,0-1.18-4.1,4,4,0,0,0-3.32-1.53,4.64,4.64,0,0,0-3.44,1.49,5.8,5.8,0,0,0-1.45,3.72v8.33a2.09,2.09,0,0,1-4.18,0V20.06a2.08,2.08,0,0,1,.63-1.51,2.1,2.1,0,0,1,3,0,2,2,0,0,1,.59,1.51v7.35A7.75,7.75,0,0,1,175.06,25,7.47,7.47,0,0,1,181,27.78a10.8,10.8,0,0,1,2.26,6.95V42.8a2.08,2.08,0,0,1-4.15,0Z"/><path d="M189,42.12A10,10,0,1,1,203.19,28,10,10,0,1,1,189,42.12Zm11.22-3a5.86,5.86,0,0,0,0-8.21,5.84,5.84,0,0,0-4.14-1.68,5.81,5.81,0,0,0,0,11.61A5.88,5.88,0,0,0,200.26,39.14Z"/><path d="M209.56,22.14a2.34,2.34,0,1,1,1.64.67A2.26,2.26,0,0,1,209.56,22.14Zm.19,22.06a2,2,0,0,1-.63-1.47V27.11a2,2,0,0,1,.63-1.49,2.14,2.14,0,0,1,1.49-.61,1.93,1.93,0,0,1,1.47.61,2.08,2.08,0,0,1,.59,1.49V42.73a2,2,0,0,1-2.08,2.08A2,2,0,0,1,209.75,44.2Z"/><path d="M219.26,42.17a9.75,9.75,0,0,1-3-7v0s0,0,0,0v0s0,0,0,0A10.11,10.11,0,0,1,226.4,25a9.4,9.4,0,0,1,6.82,2.69,2.42,2.42,0,0,1,.78,1.66,2,2,0,0,1-.67,1.53,2.16,2.16,0,0,1-1.41.61,3.28,3.28,0,0,1-1.91-.9,5.82,5.82,0,0,0-3.86-1.35,5.55,5.55,0,0,0-4,1.83A5.87,5.87,0,0,0,220.56,35l0,0,0,0a5.78,5.78,0,0,0,1.56,3.9A5.3,5.3,0,0,0,226,40.8a5.43,5.43,0,0,0,4-1.34,3.19,3.19,0,0,1,1.87-.88,2.25,2.25,0,0,1,1.45.6A2,2,0,0,1,234,40.7a2.4,2.4,0,0,1-.78,1.65A9.36,9.36,0,0,1,226.4,45,10.13,10.13,0,0,1,219.26,42.17Z"/><path d="M239.51,24.6V20.21h-1.19a.42.42,0,0,1-.43-.44.43.43,0,0,1,.43-.45h3.25a.44.44,0,0,1,.44.45.4.4,0,0,1-.12.31.44.44,0,0,1-.32.13h-1.19V24.6a.43.43,0,0,1-.45.43A.41.41,0,0,1,239.51,24.6Z"/><path d="M244.92,24.77l-1.36-3.32-.44,3.2a.42.42,0,0,1-.43.37.43.43,0,0,1-.45-.44v-.06l.67-4.78a.42.42,0,0,1,.12-.25.45.45,0,0,1,.33-.15l.17,0a.47.47,0,0,1,.24.24l1.57,3.83,1.55-3.83a.44.44,0,0,1,.4-.27.47.47,0,0,1,.17,0l0,0a.43.43,0,0,1,.25.34l.62,4.79v.06a.44.44,0,0,1-.45.44.42.42,0,0,1-.43-.38l-.41-3.18-1.35,3.3a.47.47,0,0,1-.43.26A.41.41,0,0,1,244.92,24.77Z"/></g></g></svg>